# xmcd
#
# Track frame offsets:
#	150
#	16273
#	35705
#	51646
#	70488
#	80937
#	104661
#	119214
#	136865
#	162989
#	186051
#	210224
#
# Disc length: 3041 seconds
#
# Revision: 1
# Processed by: cddbd v1.5.1PL0 Copyright (c) Steve Scherf et al.
# Submitted via: audiograbber 1.83.01
#
DISCID=b70bdf0c
DTITLE=Key Frances - Cosmic Garage
DYEAR=1900
DGENRE=
TTITLE0=Hand On the Hot Wire
TTITLE1=Dream Lizards
TTITLE2=Cosmic Garage
TTITLE3=Way to go Crazy (Live)
TTITLE4=Blue Desert
TTITLE5=Maybe an Outlaw
TTITLE6=We Are Alive
TTITLE7=Little Song
TTITLE8=9,500 Ft.
TTITLE9=Don't Fear the Fire
TTITLE10=Final Season
TTITLE11=Everybody Dub (Dread)
EXTD=
EXTT0=
EXTT1=
EXTT2=
EXTT3=
EXTT4=
EXTT5=
EXTT6=
EXTT7=
EXTT8=
EXTT9=
EXTT10=
EXTT11=
PLAYORDER=
